<svg xmlns="http://www.w3.org/2000/svg" width="16" height="18.286" viewBox="0 0 16 18.286">
  <path id="calendar-days-solid" d="M5.714,1.143V2.286h4.571V1.143a1.143,1.143,0,1,1,2.286,0V2.286h1.714A1.714,1.714,0,0,1,16,4V5.714H0V4A1.714,1.714,0,0,1,1.714,2.286H3.429V1.143a1.143,1.143,0,0,1,2.286,0ZM0,6.857H16v9.714a1.715,1.715,0,0,1-1.714,1.714H1.714A1.714,1.714,0,0,1,0,16.571Zm2.286,4a.572.572,0,0,0,.571.571H4a.573.573,0,0,0,.571-.571V9.714A.573.573,0,0,0,4,9.143H2.857a.572.572,0,0,0-.571.571Zm4.571,0a.573.573,0,0,0,.571.571H8.571a.573.573,0,0,0,.571-.571V9.714a.573.573,0,0,0-.571-.571H7.429a.573.573,0,0,0-.571.571ZM12,9.143a.573.573,0,0,0-.571.571v1.143a.573.573,0,0,0,.571.571h1.143a.573.573,0,0,0,.571-.571V9.714a.573.573,0,0,0-.571-.571ZM2.286,15.429A.572.572,0,0,0,2.857,16H4a.573.573,0,0,0,.571-.571V14.286A.573.573,0,0,0,4,13.714H2.857a.572.572,0,0,0-.571.571Zm5.143-1.714a.573.573,0,0,0-.571.571v1.143A.573.573,0,0,0,7.429,16H8.571a.573.573,0,0,0,.571-.571V14.286a.573.573,0,0,0-.571-.571Zm4,1.714A.573.573,0,0,0,12,16h1.143a.573.573,0,0,0,.571-.571V14.286a.573.573,0,0,0-.571-.571H12a.573.573,0,0,0-.571.571Z" fill="#707070"/>
</svg>
