<svg id="clock-rotate-left-solid" xmlns="http://www.w3.org/2000/svg" width="24" height="24" viewBox="0 0 24 24">
  <path id="clock-rotate-left-solid-2" data-name="clock-rotate-left-solid" d="M3.516,3.516,1.922,1.922A1.126,1.126,0,0,0,0,2.714V7.875A1.122,1.122,0,0,0,1.125,9H6.286a1.126,1.126,0,0,0,.8-1.922L5.639,5.634A9,9,0,1,1,6.858,19.388a1.5,1.5,0,1,0-1.72,2.461A12,12,0,1,0,3.516,3.516ZM12,6a1.122,1.122,0,0,0-1.125,1.125V12a1.124,1.124,0,0,0,.328.8l3.375,3.375a1.124,1.124,0,1,0,1.589-1.589L13.12,11.536V7.125A1.122,1.122,0,0,0,12,6Z" fill="#707070"/>
</svg>
