<svg xmlns="http://www.w3.org/2000/svg" width="12" height="9.333" viewBox="0 0 12 9.333">
  <path id="eye-solid_1_" data-name="eye-solid (1)" d="M6.024,32a5.862,5.862,0,0,0-4.012,1.679A8.254,8.254,0,0,0,.077,36.41a.662.662,0,0,0,0,.512,8.254,8.254,0,0,0,1.935,2.731,5.862,5.862,0,0,0,4.012,1.679,5.862,5.862,0,0,0,4.012-1.679,8.317,8.317,0,0,0,1.937-2.731.662.662,0,0,0,0-.512,8.3,8.3,0,0,0-1.937-2.731A5.862,5.862,0,0,0,6.024,32Zm3,4.666a3,3,0,1,1-3-3A3,3,0,0,1,9.024,36.666Zm-3-1.333a1.334,1.334,0,0,1-1.333,1.333,1.306,1.306,0,0,1-.658-.175c0,.058-.008.115-.008.175a2,2,0,1,0,2-2,1.64,1.64,0,0,0-.175.008A1.327,1.327,0,0,1,6.024,35.333Z" transform="translate(-0.025 -32)" fill="#707070"/>
</svg>
