<svg xmlns="http://www.w3.org/2000/svg" width="18.854" height="24.854" viewBox="0 0 18.854 24.854">
  <path id="file-pdf-solid" d="M3,0A3,3,0,0,0,0,3V21a3,3,0,0,0,3,3H15a3,3,0,0,0,3-3V7.5H12A1.5,1.5,0,0,1,10.5,6V0Zm9,0V6h6ZM3,10.5H4.125a2.625,2.625,0,1,1,0,5.25H3.75v1.5a.75.75,0,0,1-1.5,0v-6A.752.752,0,0,1,3,10.5Zm1.125,3.75a1.125,1.125,0,0,0,0-2.25H3.75v2.25Zm3.375-3a.752.752,0,0,1,.75-.75H9.375a2.251,2.251,0,0,1,2.25,2.25v3A2.251,2.251,0,0,1,9.375,18H8.25a.752.752,0,0,1-.75-.75ZM9,16.5h.375a.752.752,0,0,0,.75-.75v-3a.752.752,0,0,0-.75-.75H9Zm4.5-6h2.25a.75.75,0,0,1,0,1.5h-1.5v1.5h1.5a.75.75,0,0,1,0,1.5h-1.5v2.25a.75.75,0,0,1-1.5,0v-6A.752.752,0,0,1,13.5,10.5Z" transform="translate(0.25 0.604)" fill="#707070" stroke="#e8853e" stroke-width="0.5"/>
</svg>
